<?xml version="1.0" encoding="UTF-8"?><svg xmlns="http://www.w3.org/2000/svg" viewBox="0 0 433.01 500"><defs><style>.d{fill:#fff;}.e{fill:#0972ba;}</style></defs><g id="a"/><g id="b"><g id="c"><g><polygon class="e" points="0 125 216.51 0 433.01 125 433.01 375 216.51 500 0 375 0 125"/><circle class="d" cx="216.51" cy="250" r="150.98"/><g><path class="e" d="M283.16,165.5H149.86c-10.08,0-18.25,8.17-18.25,18.25s8.17,18.25,18.25,18.25h133.3c10.08,0,18.25-8.17,18.25-18.25s-8.17-18.25-18.25-18.25Z"/><path class="e" d="M283.16,231.35H149.86c-10.08,0-18.25,8.17-18.25,18.25s8.17,18.25,18.25,18.25h133.3c10.08,0,18.25-8.17,18.25-18.25s-8.17-18.25-18.25-18.25Z"/><path class="e" d="M283.16,298H149.86c-10.08,0-18.25,8.17-18.25,18.25s8.17,18.25,18.25,18.25h133.3c10.08,0,18.25-8.17,18.25-18.25s-8.17-18.25-18.25-18.25Z"/></g></g></g></g></svg>