<svg xmlns="http://www.w3.org/2000/svg" viewBox="0 0 539.6 167.55"><defs><style>.cls-1{fill:#4071b6;}.cls-2{fill:#fff;}.cls-3{fill:#4172b9;}</style></defs><g id="Layer_2" data-name="Layer 2"><g id="Layer_1-2" data-name="Layer 1"><polygon class="cls-1" points="0 41.89 72.55 0 145.1 41.89 145.1 125.66 72.55 167.55 0 125.66 0 41.89"/><circle class="cls-2" cx="72.55" cy="83.77" r="50.59"/><path class="cls-1" d="M94.88,55.46H50.22a6.12,6.12,0,1,0,0,12.23H94.88a6.12,6.12,0,1,0,0-12.23Z"/><path class="cls-1" d="M94.88,77.53H50.22a6.12,6.12,0,1,0,0,12.23H94.88a6.12,6.12,0,1,0,0-12.23Z"/><path class="cls-1" d="M94.88,99.86H50.22a6.12,6.12,0,1,0,0,12.23H94.88a6.12,6.12,0,1,0,0-12.23Z"/><polygon class="cls-3" points="387.34 91.25 364.22 35.45 330.14 35.45 353.09 88.45 371.99 132.1 402.68 132.1 414.75 104.22 444.54 35.45 410.46 35.45 387.34 91.25"/><path class="cls-3" d="M487.19,33.25c-30.5,0-52.42,21.33-52.42,50.42a51.93,51.93,0,0,0,9.64,30.79c9.24,12.71,24.46,20.63,42.78,20.63a56.6,56.6,0,0,0,21.66-4.15c18.68-7.68,30.75-25.39,30.75-47.27C539.6,54.58,517.68,33.25,487.19,33.25Zm.2,73.94c-13.16,0-21.93-10.36-21.93-23.32a25.29,25.29,0,0,1,.9-6.75A23.19,23.19,0,0,1,467.9,73a21.59,21.59,0,0,1,3.59-5.23A20.58,20.58,0,0,1,474.67,65a21.75,21.75,0,0,1,12.72-3.87A21.38,21.38,0,0,1,500,65a20.36,20.36,0,0,1,3.15,2.78A21.55,21.55,0,0,1,506.68,73a23.16,23.16,0,0,1,1.53,4.08,25.29,25.29,0,0,1,.9,6.75C509.11,96.83,500.34,107.19,487.39,107.19Z"/><rect class="cls-3" x="195.1" y="35.27" width="32.35" height="96.85"/><path class="cls-3" d="M332.49,58.38C326.64,42,312.62,32.46,294.23,32.46c-.35,0-.69,0-1,0l-.43,0c-.7,0-1.39,0-2.08.07l-.56,0c-.58,0-1.16.1-1.74.16l-.35,0c-.68.09-1.35.2-2,.32l-.47.09-1.65.36-.45.11c-.67.17-1.33.36-2,.57l-.28.09c-.58.19-1.15.39-1.72.6l-.45.17a41.58,41.58,0,0,0-3.87,1.73l-.4.21c-.58.3-1.16.62-1.73.95l-.16.09c-.63.37-1.26.76-1.88,1.16l-.29.19c-.54.37-1.09.74-1.63,1.13l-.25.18c-.61.45-1.22.92-1.82,1.4l-.08.07c-.57.46-1.12.93-1.68,1.42l-.26.23c-1.16,1-2.29,2.13-3.38,3.28l-.23.25c-.54.58-1.08,1.17-1.6,1.77h0c-.9,1-1.77,2.11-2.62,3.23l0,0c-.82,1.08-1.6,2.19-2.37,3.34l-.17.25c-.73,1.11-1.44,2.24-2.12,3.41l-.16.27c-.72,1.24-1.41,2.5-2.08,3.81-.3.57-.6,1.14-.91,1.75.15-.5.31-1,.47-1.47A80.31,80.31,0,0,1,258.82,46l.15-.2a58.73,58.73,0,0,1,8.55-9.48v-.83H235.24V132.1h32.28V71.52a34.41,34.41,0,0,1,6.93-6.13c.38-.25.76-.48,1.15-.7s.76-.43,1.14-.63a19,19,0,0,1,8.72-2.31,25,25,0,0,1,2.77.16l.69.11.62.1a15.1,15.1,0,0,1,11.9,10.17A28.36,28.36,0,0,1,303,82.08v50h32.49V76.9A54.87,54.87,0,0,0,332.49,58.38Z"/></g></g></svg>