<svg xmlns="http://www.w3.org/2000/svg" viewBox="0 0 344.5 102.63"><defs><style>.cls-1{fill:#4172b9;}</style></defs><g id="Layer_2" data-name="Layer 2"><g id="Layer_1-2" data-name="Layer 1"><polygon class="cls-1" points="192.24 58.79 169.12 2.99 135.04 2.99 157.99 56 176.89 99.65 207.58 99.65 219.65 71.77 249.44 2.99 215.36 2.99 192.24 58.79"/><path class="cls-1" d="M292.09.8c-30.5,0-52.42,21.32-52.42,50.42A51.88,51.88,0,0,0,249.31,82c9.24,12.71,24.46,20.62,42.78,20.62a56.78,56.78,0,0,0,21.66-4.14C332.43,90.8,344.5,73.1,344.5,51.22,344.5,22.12,322.58.8,292.09.8Zm.2,73.94c-13.16,0-21.93-10.37-21.93-23.32a25.31,25.31,0,0,1,.9-6.76,23.09,23.09,0,0,1,1.54-4.07,21.45,21.45,0,0,1,3.59-5.24,20,20,0,0,1,3.18-2.77,21.75,21.75,0,0,1,12.72-3.88,21.38,21.38,0,0,1,12.56,3.88A19.78,19.78,0,0,1,308,35.35a21.7,21.7,0,0,1,3.58,5.24,23.06,23.06,0,0,1,1.53,4.07,25.31,25.31,0,0,1,.9,6.76C314,64.37,305.24,74.74,292.29,74.74Z"/><rect class="cls-1" y="2.82" width="32.35" height="96.85"/><path class="cls-1" d="M137.39,25.93C131.54,9.54,117.52,0,99.13,0c-.35,0-.69,0-1,0l-.43,0c-.7,0-1.39,0-2.08.07L95,.12c-.58,0-1.16.09-1.74.16l-.35,0c-.68.08-1.36.19-2,.31l-.47.1q-.83.17-1.65.36l-.45.11c-.67.17-1.33.35-2,.56l-.28.1c-.58.18-1.15.38-1.72.59l-.46.17c-1.31.51-2.6,1.09-3.86,1.73l-.4.21c-.58.3-1.16.62-1.73,1l-.16.09c-.63.37-1.26.76-1.88,1.17L75.56,7c-.55.36-1.09.74-1.63,1.12l-.25.18c-.61.46-1.22.92-1.82,1.41l-.09.06c-.56.46-1.12.93-1.67,1.42l-.26.23c-1.16,1-2.29,2.13-3.38,3.29l-.24.25c-.54.57-1.07,1.16-1.59,1.76h0c-.9,1-1.77,2.12-2.62,3.23L62,20q-1.23,1.61-2.37,3.33l-.17.26c-.73,1.1-1.44,2.24-2.12,3.4a2.54,2.54,0,0,0-.16.28c-.72,1.23-1.41,2.5-2.08,3.8l-.91,1.75c.15-.5.31-1,.47-1.46A79.75,79.75,0,0,1,63.72,13.5l.15-.2a59.62,59.62,0,0,1,8.55-9.48V3H40.13V99.65H72.42V39.06a34.34,34.34,0,0,1,6.93-6.12c.38-.25.76-.49,1.14-.71l1.15-.62a19,19,0,0,1,8.72-2.31,22.79,22.79,0,0,1,2.77.16l.69.11c.21,0,.42.05.62.09a15.12,15.12,0,0,1,11.9,10.18,28.3,28.3,0,0,1,1.55,9.78v50h32.49V44.44A55.06,55.06,0,0,0,137.39,25.93Z"/></g></g></svg>