<svg xmlns="http://www.w3.org/2000/svg" viewBox="0 0 145.1 167.55"><defs><style>.cls-1{fill:#4071b6;}.cls-2{fill:#fff;}</style></defs><g id="Layer_2" data-name="Layer 2"><g id="Layer_1-2" data-name="Layer 1"><polygon class="cls-1" points="0 41.89 72.55 0 145.1 41.89 145.1 125.66 72.55 167.55 0 125.66 0 41.89"/><circle class="cls-2" cx="72.55" cy="83.77" r="50.59"/><path class="cls-1" d="M94.88,55.46H50.22a6.12,6.12,0,1,0,0,12.23H94.88a6.12,6.12,0,1,0,0-12.23Z"/><path class="cls-1" d="M94.88,77.53H50.22a6.12,6.12,0,1,0,0,12.23H94.88a6.12,6.12,0,1,0,0-12.23Z"/><path class="cls-1" d="M94.88,99.86H50.22a6.12,6.12,0,1,0,0,12.23H94.88a6.12,6.12,0,1,0,0-12.23Z"/></g></g></svg>